REM DIRINDEX 1\5,1\2\6,1\2\7,1\3\8,1\3\9,1\4\10,1\4\11,1\4\12
REM DIRNAME cjc026,folder01,folder02,folder03,folder04,folder05,folder06,folder07,folder08,folder09,folder10,folder11
TITLE ""
FILE "EJE_DB3000_5th_4B_47.mp3" MP3
  TRACK 01 AUDIO
    TITLE "0:"
    INDEX 01 00:00:00
  TRACK 02 AUDIO
    TITLE "10:cjc026_10011"
    INDEX 01 00:00:08
  TRACK 03 AUDIO
    TITLE "0:"
    INDEX 01 00:02:09
  TRACK 04 AUDIO
    TITLE "11:cjc026_10012"
    INDEX 01 00:02:44
  TRACK 05 AUDIO
    TITLE "0:"
    INDEX 01 00:05:05
  TRACK 06 AUDIO
    TITLE "12:cjc026_10013"
    INDEX 01 00:05:40
  TRACK 07 AUDIO
    TITLE "0:"
    INDEX 01 00:07:42
  TRACK 08 AUDIO
    TITLE "10:cjc026_10014"
    INDEX 01 00:08:02
  TRACK 09 AUDIO
    TITLE "0:"
    INDEX 01 00:09:48
  TRACK 10 AUDIO
    TITLE "11:cjc026_10015"
    INDEX 01 00:10:08
  TRACK 11 AUDIO
    TITLE "0:"
    INDEX 01 00:12:53
  TRACK 12 AUDIO
    TITLE "12:cjc026_10016"
    INDEX 01 00:13:13
  TRACK 13 AUDIO
    TITLE "0:"
    INDEX 01 00:14:59
  TRACK 14 AUDIO
    TITLE "10:cjc026_10017"
    INDEX 01 00:15:19
  TRACK 15 AUDIO
    TITLE "0:"
    INDEX 01 00:17:07
  TRACK 16 AUDIO
    TITLE "11:cjc026_10018"
    INDEX 01 00:17:42
  TRACK 17 AUDIO
    TITLE "0:"
    INDEX 01 00:19:68
  TRACK 18 AUDIO
    TITLE "12:cjc026_10019"
    INDEX 01 00:20:25
  TRACK 19 AUDIO
    TITLE "0:"
    INDEX 01 00:22:15
  TRACK 20 AUDIO
    TITLE "10:cjc026_10020"
    INDEX 01 00:22:48
  TRACK 21 AUDIO
    TITLE "0:"
    INDEX 01 00:24:19
  TRACK 22 AUDIO
    TITLE "11:cjc026_10021"
    INDEX 01 00:24:54
  TRACK 23 AUDIO
    TITLE "0:"
    INDEX 01 00:26:72
  TRACK 24 AUDIO
    TITLE "12:cjc026_10022"
    INDEX 01 00:27:29
  TRACK 25 AUDIO
    TITLE "0:"
    INDEX 01 00:29:01
  TRACK 26 AUDIO
    TITLE "10:cjc026_10023"
    INDEX 01 00:29:36
  TRACK 27 AUDIO
    TITLE "0:"
    INDEX 01 00:31:53
  TRACK 28 AUDIO
    TITLE "11:cjc026_10024"
    INDEX 01 00:32:13
  TRACK 29 AUDIO
    TITLE "0:"
    INDEX 01 00:34:66
  TRACK 30 AUDIO
    TITLE "12:cjc026_10025"
    INDEX 01 00:35:26
  TRACK 31 AUDIO
    TITLE "0:"
    INDEX 01 00:37:43
  TRACK 32 AUDIO
    TITLE "10:cjc026_10026"
    INDEX 01 00:38:03
  TRACK 33 AUDIO
    TITLE "0:"
    INDEX 01 00:39:55
  TRACK 34 AUDIO
    TITLE "11:cjc026_10027"
    INDEX 01 00:40:15
  TRACK 35 AUDIO
    TITLE "0:"
    INDEX 01 00:42:46
  TRACK 36 AUDIO
    TITLE "12:cjc026_10028"
    INDEX 01 00:43:06
  TRACK 37 AUDIO
    TITLE "0:"
    INDEX 01 00:44:58
  TRACK 38 AUDIO
    TITLE "10:cjc026_10029"
    INDEX 01 00:45:18
  TRACK 39 AUDIO
    TITLE "0:"
    INDEX 01 00:46:70
  TRACK 40 AUDIO
    TITLE "11:cjc026_10030"
    INDEX 01 00:47:33
  TRACK 41 AUDIO
    TITLE "0:"
    INDEX 01 00:50:16
  TRACK 42 AUDIO
    TITLE "12:cjc026_10031"
    INDEX 01 00:50:54
  TRACK 43 AUDIO
    TITLE "0:"
    INDEX 01 00:52:28
  TRACK 44 AUDIO
    TITLE "10:cjc026_10032"
    INDEX 01 00:52:63
  TRACK 45 AUDIO
    TITLE "0:"
    INDEX 01 00:55:00
  TRACK 46 AUDIO
    TITLE "11:cjc026_10033"
    INDEX 01 00:55:35
  TRACK 47 AUDIO
    TITLE "0:"
    INDEX 01 00:57:55
  TRACK 48 AUDIO
    TITLE "12:cjc026_10034"
    INDEX 01 00:58:15
  TRACK 49 AUDIO
    TITLE "0:"
    INDEX 01 01:00:27
  TRACK 50 AUDIO
    TITLE "10:cjc026_10035"
    INDEX 01 01:00:63
  TRACK 51 AUDIO
    TITLE "0:"
    INDEX 01 01:02:66
  TRACK 52 AUDIO
    TITLE "11:cjc026_10036"
    INDEX 01 01:03:27
  TRACK 53 AUDIO
    TITLE "0:"
    INDEX 01 01:05:71
  TRACK 54 AUDIO
    TITLE "12:cjc026_10037"
    INDEX 01 01:06:31
  TRACK 55 AUDIO
    TITLE "0:"
    INDEX 01 01:08:32
  TRACK 56 AUDIO
    TITLE "10:cjc026_10038"
    INDEX 01 01:08:70
  TRACK 57 AUDIO
    TITLE "0:"
    INDEX 01 01:10:66
  TRACK 58 AUDIO
    TITLE "11:cjc026_10039"
    INDEX 01 01:11:26
  TRACK 59 AUDIO
    TITLE "0:"
    INDEX 01 01:14:20
  TRACK 60 AUDIO
    TITLE "12:cjc026_10040"
    INDEX 01 01:14:55
  TRACK 61 AUDIO
    TITLE "0:"
    INDEX 01 01:16:53
